<svg xmlns="http://www.w3.org/2000/svg" width="256" height="256" viewBox="0 0 256 256">
  <defs>
    <linearGradient id="bg" x1="0%" y1="0%" x2="100%" y2="100%">
      <stop offset="0%" stop-color="#0A1524"/>
      <stop offset="100%" stop-color="#113258"/>
    </linearGradient>
    <linearGradient id="leftTile" x1="0%" y1="0%" x2="0%" y2="100%">
      <stop offset="0%" stop-color="#0E2B44" stop-opacity="0.86"/>
      <stop offset="100%" stop-color="#123D66" stop-opacity="0.86"/>
    </linearGradient>
    <linearGradient id="rightTile" x1="0%" y1="0%" x2="0%" y2="100%">
      <stop offset="0%" stop-color="#123C35" stop-opacity="0.86"/>
      <stop offset="100%" stop-color="#185246" stop-opacity="0.86"/>
    </linearGradient>
  </defs>
  <rect x="8" y="8" width="240" height="240" rx="52" fill="url(#bg)"/>
  <rect x="8" y="8" width="240" height="240" rx="52" fill="none" stroke="#70E7FF" stroke-opacity="0.28" stroke-width="2"/>
  <rect x="34" y="42" width="78" height="78" rx="20" fill="url(#leftTile)" stroke="#61DAFF" stroke-width="4"/>
  <rect x="144" y="42" width="78" height="78" rx="20" fill="url(#rightTile)" stroke="#67F6C5" stroke-width="4"/>
  <polyline points="79,62 57,80 79,98" fill="none" stroke="#B8F7FF" stroke-width="8" stroke-linecap="round" stroke-linejoin="round"/>
  <polyline points="94,62 116,80 94,98" fill="none" stroke="#B8F7FF" stroke-width="8" stroke-linecap="round" stroke-linejoin="round"/>
  <line x1="183" y1="58" x2="183" y2="104" stroke="#D8FFF1" stroke-width="7" stroke-linecap="round"/>
  <line x1="160" y1="81" x2="206" y2="81" stroke="#D8FFF1" stroke-width="7" stroke-linecap="round"/>
  <line x1="168" y1="66" x2="198" y2="96" stroke="#D8FFF1" stroke-width="7" stroke-linecap="round"/>
  <line x1="198" y1="66" x2="168" y2="96" stroke="#D8FFF1" stroke-width="7" stroke-linecap="round"/>
  <path d="M52 176 C86 132 170 132 204 176" fill="none" stroke="#F6FBFF" stroke-width="12" stroke-linecap="round"/>
  <line x1="62" y1="176" x2="194" y2="176" stroke="#9EE8FF" stroke-width="10" stroke-linecap="round"/>
  <line x1="84" y1="156" x2="84" y2="176" stroke="#A9F6DE" stroke-width="6" stroke-linecap="round"/>
  <line x1="114" y1="146" x2="114" y2="176" stroke="#A9F6DE" stroke-width="6" stroke-linecap="round"/>
  <line x1="142" y1="146" x2="142" y2="176" stroke="#A9F6DE" stroke-width="6" stroke-linecap="round"/>
  <line x1="172" y1="156" x2="172" y2="176" stroke="#A9F6DE" stroke-width="6" stroke-linecap="round"/>
  <circle cx="128" cy="175" r="10" fill="#67F6C5"/>
</svg>
